<svg width="432" height="52" viewBox="0 0 432 52" fill="none" xmlns="http://www.w3.org/2000/svg">
<path d="M424.49 51.764H7.511C5.51669 51.759 3.60583 50.963 2.19771 49.5507C0.789577 48.1385 -0.000800287 46.2253 6.08071e-07 44.231V7.532C-0.000535392 5.53786 0.789959 3.62494 2.19806 2.2129C3.60616 0.800864 5.51687 0.00503162 7.511 0L424.49 0C426.484 0.00503197 428.395 0.800896 429.803 2.21296C431.211 3.62503 432.001 5.53795 432 7.532V44.232C432.001 46.226 431.21 48.1387 429.802 49.5507C428.394 50.9628 426.484 51.7587 424.49 51.764M7.511 0.844C5.74019 0.848238 4.04339 1.5548 2.79292 2.80864C1.54245 4.06248 0.840466 5.76118 0.841001 7.532V44.232C0.84073 46.0027 1.5428 47.7013 2.79321 48.9551C4.04362 50.2089 5.74027 50.9155 7.511 50.92H424.49C426.261 50.9155 427.958 50.2087 429.208 48.9547C430.458 47.7006 431.16 46.0018 431.159 44.231V7.532C431.16 5.76136 430.458 4.06281 429.207 2.80899C427.957 1.55518 426.261 0.848502 424.49 0.844H7.511Z" fill="#00FFFF"/>
<path d="M37.077 39.781H31.418V45.946C31.418 45.9778 31.4054 46.0084 31.3828 46.0309C31.3603 46.0534 31.3298 46.066 31.298 46.066H27.243C27.2273 46.066 27.2117 46.0629 27.1972 46.0569C27.1827 46.0508 27.1696 46.042 27.1585 46.0308C27.1474 46.0196 27.1387 46.0064 27.1328 45.9919C27.1268 45.9773 27.1239 45.9617 27.124 45.946V39.781H25.224V45.946C25.224 45.9777 25.2115 46.008 25.1892 46.0305C25.1669 46.053 25.1367 46.0657 25.105 46.066H21.046C21.0142 46.066 20.9836 46.0534 20.9611 46.0309C20.9386 46.0084 20.926 45.9778 20.926 45.946V39.781H13.653C13.6213 39.7807 13.5911 39.768 13.5688 39.7455C13.5465 39.723 13.534 39.6927 13.534 39.661V12.061C13.534 12.0294 13.5465 11.999 13.5688 11.9765C13.5911 11.954 13.6213 11.9413 13.653 11.941H20.926V5.77601C20.926 5.74418 20.9386 5.71366 20.9611 5.69115C20.9836 5.66865 21.0142 5.65601 21.046 5.65601H25.105C25.1367 5.65627 25.1669 5.66903 25.1892 5.6915C25.2115 5.71398 25.224 5.74435 25.224 5.77601V11.941H27.124V5.77601C27.1239 5.76029 27.1268 5.74471 27.1328 5.73016C27.1387 5.71561 27.1474 5.70237 27.1585 5.69121C27.1696 5.68006 27.1827 5.6712 27.1972 5.66516C27.2117 5.65912 27.2273 5.65601 27.243 5.65601H31.298C31.3297 5.65627 31.3601 5.66899 31.3826 5.69144C31.405 5.71389 31.4177 5.74426 31.418 5.77601V11.941H37.076C37.1076 11.941 37.1378 11.9535 37.1601 11.9759C37.1825 11.9982 37.195 12.0284 37.195 12.06V17.806C37.1951 17.8217 37.1921 17.8373 37.1862 17.8519C37.1803 17.8664 37.1716 17.8796 37.1605 17.8908C37.1494 17.902 37.1363 17.9108 37.1218 17.9169C37.1073 17.9229 37.0917 17.926 37.076 17.926H19.376V33.79H37.076C37.1077 33.7903 37.1379 33.803 37.1602 33.8255C37.1825 33.848 37.195 33.8784 37.195 33.91V39.661C37.195 39.6927 37.1825 39.723 37.1602 39.7455C37.1379 39.768 37.1077 39.7807 37.076 39.781" fill="#00FFFF"/>
<path d="M34.983 28.226H21.235C21.1874 28.2257 21.1419 28.2067 21.1084 28.1729C21.0748 28.1392 21.056 28.0936 21.056 28.046V23.293C21.056 23.2695 21.0606 23.2462 21.0696 23.2245C21.0786 23.2028 21.0918 23.1831 21.1084 23.1664C21.125 23.1498 21.1448 23.1366 21.1665 23.1276C21.1882 23.1186 21.2115 23.114 21.235 23.114H34.983C35.0065 23.114 35.0298 23.1186 35.0515 23.1276C35.0732 23.1366 35.0929 23.1498 35.1096 23.1664C35.1262 23.1831 35.1394 23.2028 35.1484 23.2245C35.1574 23.2462 35.162 23.2695 35.162 23.293V28.042C35.162 28.0896 35.1432 28.1352 35.1096 28.1689C35.0761 28.2027 35.0306 28.2217 34.983 28.222" fill="#00FFFF"/>
<path d="M39.632 12.051V17.814C39.632 17.8432 39.6436 17.8711 39.6642 17.8918C39.6848 17.9124 39.7128 17.924 39.742 17.924H49.698V39.674C49.698 39.7032 49.7096 39.7311 49.7302 39.7518C49.7508 39.7724 49.7788 39.784 49.808 39.784H55.562C55.5765 39.7841 55.5909 39.7814 55.6044 39.7759C55.6179 39.7704 55.6301 39.7623 55.6404 39.7521C55.6507 39.7419 55.6589 39.7297 55.6645 39.7163C55.6701 39.7029 55.673 39.6885 55.673 39.674V17.927H65.497C65.5262 17.927 65.5541 17.9154 65.5748 17.8948C65.5954 17.8741 65.607 17.8462 65.607 17.817V12.051C65.607 12.0218 65.5954 11.9938 65.5748 11.9732C65.5541 11.9526 65.5262 11.941 65.497 11.941H39.742C39.7128 11.941 39.6848 11.9526 39.6642 11.9732C39.6436 11.9938 39.632 12.0218 39.632 12.051Z" fill="#00FFFF"/>
<path d="M67.548 11.941H73.341C73.365 11.9412 73.3879 11.9509 73.4047 11.968C73.4216 11.985 73.431 12.008 73.431 12.032V39.692C73.4311 39.7039 73.4289 39.7158 73.4245 39.7269C73.42 39.738 73.4134 39.7481 73.4051 39.7566C73.3967 39.7652 73.3867 39.772 73.3758 39.7767C73.3648 39.7814 73.353 39.7838 73.341 39.784H67.548C67.536 39.784 67.5241 39.7816 67.513 39.777C67.5018 39.7723 67.4918 39.7655 67.4833 39.757C67.4748 39.7484 67.4682 39.7383 67.4636 39.7271C67.4591 39.716 67.4569 39.704 67.457 39.692V12.032C67.457 12.0078 67.4666 11.9847 67.4837 11.9676C67.5007 11.9506 67.5239 11.941 67.548 11.941" fill="#00FFFF"/>
<path d="M88.612 28.222V39.692C88.6119 39.704 88.6141 39.716 88.6186 39.7271C88.6232 39.7383 88.6298 39.7484 88.6383 39.757C88.6468 39.7655 88.6568 39.7723 88.668 39.777C88.6791 39.7816 88.691 39.784 88.703 39.784H94.495C94.507 39.784 94.519 39.7816 94.5301 39.777C94.5412 39.7723 94.5512 39.7655 94.5597 39.757C94.5682 39.7484 94.5748 39.7383 94.5794 39.7271C94.5839 39.716 94.5861 39.704 94.586 39.692V12.032C94.586 12.0078 94.5764 11.9847 94.5594 11.9676C94.5423 11.9506 94.5191 11.941 94.495 11.941H88.703C88.6789 11.941 88.6557 11.9506 88.6387 11.9676C88.6216 11.9847 88.612 12.0078 88.612 12.032V23.114H74.552C74.5279 23.114 74.5047 23.1236 74.4877 23.1406C74.4706 23.1577 74.461 23.1808 74.461 23.205V28.132C74.461 28.1561 74.4706 28.1793 74.4877 28.1963C74.5047 28.2134 74.5279 28.223 74.552 28.223L88.612 28.222Z" fill="#00FFFF"/>
<path d="M95.756 39.392L111.239 13.404C111.554 12.8746 112.001 12.4364 112.536 12.1324C113.072 11.8285 113.677 11.6694 114.293 11.6708C114.909 11.6723 115.514 11.8341 116.048 12.1405C116.582 12.4469 117.027 12.8872 117.339 13.418L132.654 39.393C132.677 39.4323 132.69 39.4771 132.69 39.5229C132.691 39.5686 132.679 39.6136 132.656 39.6533C132.633 39.693 132.601 39.726 132.561 39.749C132.522 39.7719 132.477 39.784 132.431 39.784H125.917C125.86 39.784 125.804 39.7692 125.754 39.7409C125.705 39.7127 125.663 39.6721 125.634 39.623L121.774 33.086H108.693C108.674 33.0875 108.655 33.0835 108.638 33.0745C108.621 33.0655 108.607 33.052 108.598 33.0354C108.589 33.0188 108.584 32.9998 108.585 32.9808C108.586 32.9618 108.593 32.9435 108.604 32.928L111.323 28.365C111.349 28.3215 111.386 28.2856 111.43 28.2607C111.474 28.2358 111.523 28.2228 111.574 28.223H118.935L114.301 19.942L102.568 39.624C102.539 39.6728 102.498 39.7132 102.448 39.7413C102.399 39.7693 102.343 39.784 102.286 39.784H95.978C95.9322 39.7839 95.8873 39.7718 95.8477 39.7487C95.8082 39.7256 95.7754 39.6925 95.7529 39.6526C95.7303 39.6128 95.7187 39.5677 95.7193 39.5219C95.7198 39.4761 95.7325 39.4313 95.756 39.392" fill="#00FFFF"/>
<path d="M134.091 39.345L145.601 25.48L134.86 12.38C134.827 12.3413 134.807 12.2943 134.8 12.2442C134.793 12.1942 134.8 12.1432 134.821 12.0973C134.842 12.0513 134.876 12.0122 134.918 11.9845C134.96 11.9569 135.01 11.9418 135.06 11.941H141.314C141.348 11.941 141.381 11.9486 141.412 11.9631C141.443 11.9776 141.47 11.9988 141.491 12.025L149.128 21.181L156.769 12.023C156.791 11.9973 156.818 11.9767 156.849 11.9626C156.879 11.9484 156.912 11.941 156.946 11.941H162.992C163.043 11.9416 163.092 11.9567 163.135 11.9844C163.177 12.0121 163.211 12.0513 163.232 12.0975C163.253 12.1436 163.26 12.1948 163.253 12.245C163.246 12.2952 163.225 12.3424 163.192 12.381L152.602 25.414L164.157 39.343C164.19 39.3816 164.212 39.4288 164.219 39.4792C164.226 39.5296 164.219 39.5809 164.198 39.6273C164.177 39.6736 164.143 39.713 164.1 39.7407C164.058 39.7685 164.008 39.7835 163.957 39.784H157.44C157.406 39.784 157.373 39.7766 157.342 39.7622C157.312 39.7479 157.285 39.727 157.263 39.701L149.094 29.776L140.994 39.697C140.972 39.7242 140.944 39.7462 140.913 39.7613C140.881 39.7764 140.847 39.7841 140.812 39.784H134.298C134.248 39.7832 134.198 39.7681 134.156 39.7404C134.114 39.7128 134.08 39.6737 134.059 39.6277C134.038 39.5817 134.031 39.5308 134.038 39.4807C134.045 39.4307 134.065 39.3836 134.098 39.345" fill="#00FFFF"/>
<path d="M157.6 39.311H163.5L162.2 37.74H156.316L157.6 39.311Z" fill="#00FFFF"/>
<path d="M155.96 37.308H161.838L160.538 35.737H154.673L155.96 37.308Z" fill="#BD69F5"/>
<path d="M154.314 35.308H160.177L158.87 33.737H153.027L154.314 35.308Z" fill="#FFFF1C"/>
<path d="M152.676 33.307H158.517L157.211 31.736H151.385L152.676 33.307Z" fill="#FF94FF"/>
<path d="M151.033 31.305H156.856L155.556 29.734H149.746L151.033 31.305Z" fill="#00FF12"/>
<path d="M165.098 13.463H165.35C165.403 13.463 165.457 13.463 165.51 13.456C165.56 13.4532 165.608 13.442 165.654 13.423C165.686 13.4063 165.715 13.3829 165.738 13.3545C165.76 13.3261 165.777 13.2933 165.787 13.2581C165.796 13.2229 165.798 13.1861 165.792 13.1501C165.787 13.1141 165.774 13.0797 165.754 13.049C165.728 13.014 165.694 12.9864 165.654 12.969C165.608 12.9508 165.559 12.9406 165.51 12.939C165.457 12.939 165.403 12.939 165.35 12.939H165.098V13.463ZM164.751 12.639H165.479C165.658 12.6252 165.836 12.6775 165.979 12.786C166.035 12.8408 166.078 12.9069 166.106 12.9799C166.134 13.0529 166.146 13.131 166.141 13.209C166.146 13.2767 166.138 13.3448 166.116 13.4091C166.094 13.4734 166.059 13.5326 166.014 13.583C165.927 13.6666 165.813 13.7181 165.693 13.729L166.18 14.529H165.823L165.352 13.754H165.1V14.529H164.753L164.751 12.639ZM164.028 13.596C164.027 13.7782 164.063 13.9586 164.135 14.126C164.203 14.2878 164.302 14.4349 164.426 14.559C164.549 14.6837 164.696 14.7829 164.858 14.851C165.025 14.9216 165.205 14.958 165.387 14.958C165.568 14.958 165.748 14.9216 165.915 14.851C166.241 14.713 166.5 14.4528 166.637 14.126C166.708 13.9583 166.744 13.7781 166.744 13.596C166.744 13.414 166.708 13.2338 166.637 13.066C166.501 12.7391 166.241 12.4788 165.915 12.341C165.748 12.2701 165.568 12.2335 165.387 12.2335C165.205 12.2335 165.025 12.2701 164.858 12.341C164.696 12.4086 164.549 12.5075 164.426 12.632C164.302 12.7562 164.203 12.9032 164.135 13.065C164.063 13.2325 164.027 13.4129 164.028 13.595M163.735 13.595C163.734 13.3736 163.778 13.1543 163.866 12.951C164.036 12.5558 164.35 12.2405 164.745 12.07C164.948 11.9835 165.166 11.939 165.386 11.939C165.606 11.939 165.824 11.9835 166.027 12.07C166.422 12.2409 166.736 12.5561 166.906 12.951C166.992 13.1546 167.037 13.3734 167.037 13.5945C167.037 13.8156 166.992 14.0345 166.906 14.238C166.736 14.6331 166.422 14.9483 166.027 15.119C165.824 15.2055 165.606 15.25 165.386 15.25C165.166 15.25 164.948 15.2055 164.745 15.119C164.35 14.9487 164.035 14.6334 163.866 14.238C163.778 14.035 163.734 13.8161 163.735 13.595" fill="#00FFFF"/>
<path d="M365.981 39.508L357.761 31.189C361.29 29.835 363.391 26.635 363.391 22.118C363.391 16.018 359.714 12.144 353.483 12.144H333.893V39.508H338.621V16.925H353.483C356.749 16.925 358.701 18.656 358.701 22.194C358.701 25.732 356.901 27.694 353.483 27.694H342.112V31.91H352.32L359.225 39.51L365.981 39.508ZM328.752 23.587H313.627V27.615H328.752V23.587ZM329.802 39.508V34.728H310.137V16.928H329.764V12.148H305.408V39.508H329.802ZM277.148 34.728V16.928H288.219C293.136 16.928 296.739 20.617 296.739 25.773C296.739 30.929 293.139 34.731 288.219 34.731L277.148 34.728ZM288.219 39.508C295.913 39.508 301.505 33.486 301.505 25.544C301.505 17.602 295.913 12.144 288.219 12.144H272.419V39.508H288.219ZM269.491 39.508L253.766 13.308C253.566 12.8627 253.246 12.4823 252.84 12.2101C252.435 11.9379 251.962 11.7847 251.474 11.768C250.981 11.7845 250.503 11.9375 250.092 12.2099C249.681 12.4824 249.354 12.8636 249.147 13.311L233.46 39.511H238.901L251.286 18.511L257.374 28.748H249.004L246.752 32.624H259.662L263.753 39.512L269.491 39.508ZM232.825 39.508L224.605 31.189C228.133 29.835 230.235 26.635 230.235 22.118C230.235 16.018 226.557 12.144 220.327 12.144H200.736V39.508H205.465V16.925H220.327C223.593 16.925 225.544 18.656 225.544 22.194C225.544 25.732 223.744 27.694 220.327 27.694H208.955V31.91H219.164L226.069 39.51L232.825 39.508ZM187.225 39.508V16.925H197.584V12.148H172.101V16.928H182.46V39.508H187.225Z" fill="white"/>
<path d="M385.756 26.403C385.624 26.4029 385.493 26.3767 385.37 26.3259C385.248 26.2751 385.137 26.2007 385.044 26.107C384.95 26.0133 384.876 25.9021 384.826 25.7797C384.776 25.6574 384.75 25.5263 384.75 25.394V21.845C384.75 21.5781 384.856 21.3221 385.045 21.1333C385.234 20.9445 385.49 20.8385 385.757 20.8385C386.023 20.8385 386.279 20.9445 386.468 21.1333C386.657 21.3221 386.763 21.5781 386.763 21.845V25.396C386.763 25.6632 386.657 25.9195 386.469 26.1087C386.28 26.2979 386.024 26.4045 385.757 26.405" fill="#00FFFF"/>
<path d="M389.942 24.038C389.675 24.0375 389.419 23.9309 389.23 23.7417C389.042 23.5525 388.936 23.2962 388.936 23.029V20.638C388.936 20.3712 389.042 20.1153 389.231 19.9267C389.419 19.738 389.675 19.632 389.942 19.632C390.209 19.632 390.465 19.738 390.653 19.9267C390.842 20.1153 390.948 20.3712 390.948 20.638V23.033C390.948 23.1653 390.922 23.2964 390.872 23.4188C390.822 23.5411 390.748 23.6523 390.654 23.746C390.561 23.8397 390.45 23.9141 390.328 23.9649C390.205 24.0157 390.074 24.0419 389.942 24.042" fill="#00FFFF"/>
<path d="M394.127 25.812C393.86 25.8115 393.604 25.7049 393.415 25.5157C393.227 25.3265 393.121 25.0702 393.121 24.803V21.256C393.121 20.9891 393.227 20.7331 393.416 20.5443C393.605 20.3556 393.861 20.2495 394.127 20.2495C394.394 20.2495 394.65 20.3556 394.839 20.5443C395.028 20.7331 395.134 20.9891 395.134 21.256V24.805C395.134 25.0722 395.028 25.3285 394.84 25.5177C394.651 25.7069 394.395 25.8135 394.128 25.814" fill="#00FFFF"/>
<path d="M398.313 24.038C398.046 24.0374 397.79 23.9309 397.601 23.7417C397.413 23.5525 397.307 23.2961 397.307 23.029V17.862C397.307 17.595 397.413 17.339 397.602 17.1503C397.791 16.9615 398.047 16.8555 398.313 16.8555C398.58 16.8555 398.836 16.9615 399.025 17.1503C399.214 17.339 399.32 17.595 399.32 17.862V23.029C399.32 23.2961 399.214 23.5525 399.026 23.7417C398.837 23.9309 398.581 24.0374 398.314 24.038" fill="#00FFFF"/>
<path d="M402.582 20.446C402.315 20.4455 402.059 20.3389 401.87 20.1497C401.682 19.9605 401.576 19.7042 401.576 19.437V17.042C401.576 16.7751 401.682 16.5191 401.871 16.3303C402.06 16.1416 402.316 16.0355 402.582 16.0355C402.849 16.0355 403.105 16.1416 403.294 16.3303C403.483 16.5191 403.589 16.7751 403.589 17.042V19.432C403.589 19.6992 403.483 19.9555 403.295 20.1447C403.106 20.3339 402.85 20.4405 402.583 20.441" fill="#00FFFF"/>
<path d="M408.277 44.703C406.338 44.7078 404.441 44.137 402.826 43.0631C401.211 41.9891 399.951 40.4603 399.206 38.67C398.461 36.8797 398.263 34.9085 398.638 33.0059C399.014 31.1033 399.945 29.3548 401.315 27.9819C402.684 26.6089 404.431 25.6732 406.332 25.2931C408.234 24.913 410.206 25.1057 411.998 25.8467C413.79 26.5877 415.322 27.8438 416.4 29.4559C417.478 31.068 418.053 32.9637 418.053 34.903C418.053 37.498 417.024 39.987 415.191 41.8242C413.358 43.6613 410.872 44.6966 408.277 44.703M408.277 26.337C406.583 26.3321 404.925 26.83 403.513 27.7678C402.102 28.7056 401.001 30.041 400.349 31.6051C399.697 33.1692 399.524 34.8915 399.851 36.554C400.179 38.2165 400.992 39.7444 402.189 40.9444C403.385 42.1443 404.911 42.9622 406.572 43.2946C408.234 43.627 409.957 43.4589 411.523 42.8116C413.089 42.1643 414.427 41.0669 415.369 39.6584C416.311 38.2498 416.814 36.5935 416.814 34.899C416.815 32.6323 415.916 30.4578 414.316 28.8527C412.716 27.2476 410.544 26.3428 408.277 26.337Z" fill="#00FFFF"/>
<path d="M408.278 44.019C406.473 44.0241 404.708 43.4937 403.205 42.4948C401.702 41.4959 400.529 40.0735 399.835 38.4077C399.14 36.7419 398.956 34.9076 399.305 33.1369C399.654 31.3663 400.52 29.739 401.795 28.4611C403.069 27.1832 404.694 26.3121 406.463 25.9581C408.233 25.6042 410.068 25.7832 411.736 26.4727C413.403 27.1621 414.829 28.3309 415.832 29.831C416.835 31.3312 417.371 33.0953 417.371 34.9C417.372 37.3142 416.415 39.6302 414.71 41.3398C413.005 43.0493 410.692 44.0129 408.278 44.019ZM408.278 26.935C406.702 26.9306 405.16 27.394 403.847 28.2664C402.535 29.1389 401.511 30.3812 400.905 31.836C400.298 33.2908 400.138 34.8928 400.442 36.4391C400.747 37.9855 401.504 39.4066 402.617 40.5225C403.73 41.6385 405.149 42.3992 406.694 42.7083C408.24 43.0174 409.842 42.861 411.299 42.2588C412.755 41.6567 414 40.636 414.876 39.3258C415.752 38.0157 416.22 36.475 416.22 34.899C416.221 32.7904 415.385 30.7678 413.896 29.2748C412.407 27.7817 410.387 26.9403 408.278 26.935" fill="#00FFFF"/>
<path d="M410.293 39.581L403.976 37.813L406.1 30.179L412.417 31.947L412.084 33.147L406.957 31.71L405.499 36.951L410.623 38.385L410.293 39.581Z" fill="#00FFFF"/>
<path d="M406.733 35.018L407.067 33.8198L410.67 34.825L410.335 36.0232L406.733 35.018Z" fill="#00FFFF"/>
<path d="M405.307 40.125L405.997 37.6555L407.19 37.9889L406.501 40.4586L405.307 40.125Z" fill="#00FFFF"/>
<path d="M407.166 40.645L407.856 38.1756L409.048 38.5086L408.36 40.9786L407.166 40.645Z" fill="#00FFFF"/>
<path d="M407.765 31.292L408.455 28.8225L409.648 29.1559L408.959 31.6256L407.765 31.292Z" fill="#00FFFF"/>
<path d="M409.623 31.812L410.313 29.3425L411.506 29.6759L410.817 32.1456L409.623 31.812Z" fill="#00FFFF"/>
<path d="M410.67 26.799C410.536 26.7989 410.403 26.7723 410.28 26.7209C410.156 26.6694 410.043 26.5941 409.949 26.4992C409.854 26.4043 409.779 26.2916 409.728 26.1677C409.677 26.0438 409.651 25.911 409.651 25.777V14.068C409.652 13.8443 409.608 13.6227 409.523 13.4159C409.438 13.2091 409.313 13.0211 409.155 12.8627C408.997 12.7043 408.809 12.5786 408.603 12.4929C408.396 12.4071 408.175 12.363 407.951 12.363H402.92C402.655 12.3547 402.403 12.2434 402.218 12.0528C402.033 11.8621 401.93 11.607 401.93 11.3415C401.93 11.076 402.033 10.8209 402.218 10.6302C402.403 10.4396 402.655 10.3283 402.92 10.32H407.951C408.943 10.3227 409.894 10.7187 410.594 11.4214C411.295 12.124 411.688 13.0758 411.688 14.068V25.775C411.688 25.909 411.662 26.0416 411.611 26.1655C411.56 26.2894 411.485 26.4019 411.391 26.4968C411.296 26.5917 411.184 26.6671 411.06 26.7186C410.937 26.7701 410.804 26.7967 410.67 26.797" fill="#00FFFF"/>
<path d="M376.006 28.759V33.117C376.002 33.2518 376.025 33.3861 376.073 33.512C376.122 33.6378 376.195 33.7526 376.289 33.8494C376.383 33.9463 376.496 34.0234 376.62 34.076C376.744 34.1286 376.878 34.1557 377.012 34.1557C377.147 34.1557 377.281 34.1286 377.405 34.076C377.529 34.0234 377.642 33.9463 377.736 33.8494C377.83 33.7526 377.903 33.6378 377.952 33.512C378 33.3861 378.023 33.2518 378.019 33.117V28.759H376.006Z" fill="#00FFFF"/>
<path d="M403.261 10.329H379.739C378.748 10.3316 377.798 10.7273 377.098 11.4292C376.399 12.131 376.006 13.0818 376.006 14.073V15.905H378.019V14.073C378.019 13.6162 378.2 13.178 378.523 12.8546C378.845 12.5312 379.283 12.349 379.74 12.348H403.262C403.53 12.348 403.787 12.2416 403.976 12.0523C404.165 11.863 404.272 11.6062 404.272 11.3385C404.272 11.0707 404.165 10.814 403.976 10.6247C403.787 10.4353 403.53 10.329 403.262 10.329" fill="#00FFFF"/>
<path d="M398.878 37.561H379.751C378.866 37.5746 378.001 37.3006 377.285 36.7801C376.57 36.2596 376.043 35.5209 375.783 34.675H388.196C388.598 35.1144 389.096 35.4553 389.651 35.6714C390.206 35.8875 390.803 35.9729 391.396 35.921H396.253C397.038 35.9503 397.819 35.7898 398.529 35.453C398.519 35.269 398.501 35.086 398.501 34.899C398.503 34.1493 398.592 33.4024 398.765 32.673C398.588 32.6911 398.418 32.7563 398.275 32.8618C398.131 32.9673 398.018 33.1093 397.948 33.273C397.813 33.598 397.515 33.897 396.253 33.897H391.396C390.135 33.897 389.836 33.597 389.702 33.273C389.626 33.089 389.497 32.9317 389.331 32.821C389.166 32.7102 388.971 32.6511 388.772 32.651H374.637C374.505 32.6511 374.374 32.6773 374.251 32.7281C374.129 32.7789 374.018 32.8533 373.925 32.9469C373.831 33.0406 373.757 33.1518 373.706 33.2742C373.656 33.3965 373.63 33.5276 373.63 33.66C373.66 35.2552 374.321 36.7735 375.468 37.8821C376.616 38.9907 378.156 39.5992 379.751 39.574H399.69C399.345 38.9334 399.073 38.2562 398.878 37.555" fill="#00FFFF"/>
<g opacity="0.25">
<path d="M408.278 22.292C405.787 22.2847 403.349 23.0168 401.274 24.3956C399.199 25.7744 397.579 27.738 396.621 30.0377C395.662 32.3374 395.408 34.8698 395.889 37.3142C396.371 39.7587 397.567 42.0053 399.326 43.7696C401.085 45.5339 403.328 46.7366 405.771 47.2253C408.214 47.7141 410.747 47.4669 413.05 46.5152C415.352 45.5635 417.321 43.9499 418.706 41.8789C420.091 39.8078 420.83 37.3724 420.83 34.881C420.835 31.5471 419.515 28.3479 417.161 25.987C414.807 23.6262 411.612 22.297 408.278 22.292ZM408.278 43.443C406.583 43.4479 404.926 42.95 403.514 42.0122C402.103 41.0744 401.002 39.7389 400.35 38.1749C399.698 36.6108 399.525 34.8885 399.852 33.226C400.18 31.5635 400.993 30.0356 402.19 28.8356C403.386 27.6357 404.912 26.8178 406.573 26.4854C408.235 26.153 409.958 26.3211 411.524 26.9684C413.09 27.6157 414.428 28.7131 415.37 30.1216C416.312 31.5302 416.815 33.1865 416.815 34.881C416.817 36.0037 416.597 37.1158 416.169 38.1538C415.741 39.1917 415.113 40.1351 414.32 40.9302C413.527 41.7253 412.586 42.3564 411.549 42.7875C410.512 43.2187 409.401 43.4414 408.278 43.443" fill="#00FFFF"/>
</g>
<path d="M378.431 28.759H375.555C374.881 28.7571 374.235 28.4879 373.759 28.0105C373.283 27.533 373.016 26.8862 373.016 26.212V18.452C373.015 17.7776 373.283 17.1306 373.759 16.6529C374.235 16.1752 374.881 15.9058 375.555 15.904H378.431C379.106 15.9056 379.752 16.1748 380.228 16.6525C380.704 17.1303 380.972 17.7774 380.971 18.452V26.212C380.971 26.8864 380.704 27.5333 380.228 28.0108C379.752 28.4883 379.105 28.7574 378.431 28.759M375.555 17.75C375.369 17.75 375.191 17.8237 375.06 17.955C374.929 18.0863 374.855 18.2643 374.855 18.45V26.21C374.855 26.3956 374.929 26.5737 375.06 26.705C375.191 26.8362 375.369 26.91 375.555 26.91H378.431C378.617 26.91 378.795 26.8362 378.926 26.705C379.057 26.5737 379.131 26.3956 379.131 26.21V18.45C379.131 18.2643 379.057 18.0863 378.926 17.955C378.795 17.8237 378.617 17.75 378.431 17.75H375.555Z" fill="#00FFFF"/>
</svg>
